<svg width="18" height="18" viewBox="0 0 18 18" fill="none" xmlns="http://www.w3.org/2000/svg">
<g clip-path="url(#clip0_119_89)">
<path d="M16.4038 0.81775L12.9461 0.0198195C12.5704 -0.066623 12.1848 0.129535 12.0318 0.481954L10.436 4.20563C10.2963 4.53145 10.3894 4.9138 10.6654 5.13655L12.6802 6.78561C11.4833 9.33566 9.39201 11.4568 6.78876 12.677L5.1397 10.6622C4.91362 10.3863 4.53461 10.2932 4.20878 10.4328L0.485107 12.0287C0.129363 12.1849 -0.0667955 12.5706 0.019647 12.9463L0.817578 16.404C0.900696 16.7631 1.21987 17.0224 1.59556 17.0224C10.1101 17.0224 17.0222 10.1236 17.0222 1.59573C17.0222 1.22337 16.7662 0.900868 16.4038 0.81775Z" fill="white"/>
</g>
<defs>
<clipPath id="clip0_119_89">
<rect width="17.0225" height="17.0225" fill="white"/>
</clipPath>
</defs>
</svg>
