<svg width="183" height="183" viewBox="0 0 183 183" fill="none" xmlns="http://www.w3.org/2000/svg">
<foreignObject x="0" y="0" width="182.491" height="182.491"><div xmlns="http://www.w3.org/1999/xhtml" style="backdrop-filter:blur(2px);clip-path:url(#bgblur_0_133_80_clip_path);height:100%;width:100%"></div></foreignObject><g filter="url(#filter0_d_133_80)" data-figma-bg-blur-radius="4">
<rect x="40.2454" y="44.3027" width="85.863" height="85.863" rx="20" transform="rotate(-12.1401 40.2454 44.3027)" fill="white"/>
</g>
<g filter="url(#filter1_d_133_80)">
<rect x="54.2033" y="53.3188" width="62.3636" height="62.3636" rx="20" transform="rotate(-12.1401 54.2033 53.3188)" fill="white"/>
</g>
<rect x="69.2425" y="64.7827" width="17.1726" height="8.5863" rx="4" transform="rotate(-12.1401 69.2425 64.7827)" fill="#545AE8"/>
<rect width="17.1726" height="8.5863" rx="4" transform="matrix(0.977636 -0.210303 -0.210303 -0.977636 95.9316 93.5874)" fill="#545AE8"/>
<rect x="71.5297" y="75.4155" width="17.1726" height="22.8968" rx="4" transform="rotate(-12.1401 71.5297 75.4155)" fill="#545AE8"/>
<rect width="17.1726" height="22.8968" rx="4" transform="matrix(0.977636 -0.210303 -0.210303 -0.977636 93.6443 82.9541)" fill="#F48C06"/>
<defs>
<filter id="filter0_d_133_80" x="0" y="0" width="182.491" height="182.491" filterUnits="userSpaceOnUse" color-interpolation-filters="sRGB">
<feFlood flood-opacity="0" result="BackgroundImageFix"/>
<feColorMatrix in="SourceAlpha" type="matrix" values="0 0 0 0 0 0 0 0 0 0 0 0 0 0 0 0 0 0 127 0" result="hardAlpha"/>
<feOffset dy="14"/>
<feGaussianBlur stdDeviation="22"/>
<feColorMatrix type="matrix" values="0 0 0 0 0.337255 0 0 0 0 0.356863 0 0 0 0 0.866667 0 0 0 0.1 0"/>
<feBlend mode="normal" in2="BackgroundImageFix" result="effect1_dropShadow_133_80"/>
<feBlend mode="normal" in="SourceGraphic" in2="effect1_dropShadow_133_80" result="shape"/>
</filter>
<clipPath id="bgblur_0_133_80_clip_path" transform="translate(0 0)"><rect x="40.2454" y="44.3027" width="85.863" height="85.863" rx="20" transform="rotate(-12.1401 40.2454 44.3027)"/>
</clipPath><filter id="filter1_d_133_80" x="13.9579" y="15.958" width="154.575" height="154.575" filterUnits="userSpaceOnUse" color-interpolation-filters="sRGB">
<feFlood flood-opacity="0" result="BackgroundImageFix"/>
<feColorMatrix in="SourceAlpha" type="matrix" values="0 0 0 0 0 0 0 0 0 0 0 0 0 0 0 0 0 0 127 0" result="hardAlpha"/>
<feOffset dy="16"/>
<feGaussianBlur stdDeviation="22"/>
<feColorMatrix type="matrix" values="0 0 0 0 0.0509804 0 0 0 0 0.0588235 0 0 0 0 0.109804 0 0 0 0.1 0"/>
<feBlend mode="normal" in2="BackgroundImageFix" result="effect1_dropShadow_133_80"/>
<feBlend mode="normal" in="SourceGraphic" in2="effect1_dropShadow_133_80" result="shape"/>
</filter>
</defs>
</svg>
