<svg width="162" height="50" viewBox="0 0 162 50" fill="none" xmlns="http://www.w3.org/2000/svg">
<path d="M84.9975 12.546C84.9975 14.3455 83.5358 15.7946 81.7219 15.7946C79.9079 15.7946 78.4473 14.3455 78.4473 12.546C78.4473 10.7464 79.8581 9.29735 81.7219 9.29735C83.5872 9.34728 84.9975 10.7968 84.9975 12.546ZM71.4945 19.0941V19.894C71.4945 19.894 69.9332 17.8937 66.6078 17.8937C61.1166 17.8937 56.8333 22.0426 56.8333 27.7903C56.8333 33.4886 61.0662 37.6869 66.6078 37.6869C69.9835 37.6869 71.4945 35.6377 71.4945 35.6377V36.487C71.4945 36.887 71.7975 37.1861 72.2001 37.1861H76.2805V18.392H72.2001C71.7975 18.3935 71.4945 18.7441 71.4945 19.0941ZM71.4945 31.1393C70.7395 32.2393 69.2275 33.189 67.4141 33.189C64.1898 33.189 61.7205 31.1897 61.7205 27.7903C61.7205 24.3914 64.1898 22.3921 67.4141 22.3921C69.1777 22.3921 70.7898 23.3918 71.4945 24.4413V31.1393ZM79.304 18.3935H84.1403V37.1875H79.304V18.3935ZM151.553 17.8932C148.227 17.8932 146.665 19.8935 146.665 19.8935V9.34729H141.829V37.1875H145.91C146.313 37.1875 146.615 36.8375 146.615 36.4875V35.6382C146.615 35.6382 148.177 37.6874 151.501 37.6874C156.994 37.6874 161.276 33.4901 161.276 27.7918C161.276 22.0935 156.994 17.8932 151.553 17.8932ZM150.746 33.1385C148.882 33.1385 147.421 32.1898 146.665 31.0893V24.3914C147.421 23.3918 149.033 22.3422 150.746 22.3422C153.971 22.3422 156.439 24.3415 156.439 27.7404C156.439 31.1393 153.971 33.1385 150.746 33.1385ZM139.31 26.0417V37.2375H134.473V26.5909C134.473 23.4926 133.465 22.2423 130.746 22.2423C129.285 22.2423 127.773 22.9923 126.815 24.0923V37.1881H121.979V18.394H125.807C126.21 18.394 126.513 18.7441 126.513 19.0941V19.894C127.923 18.444 129.787 17.8937 131.651 17.8937C133.767 17.8937 135.531 18.4944 136.942 19.6938C138.654 21.0934 139.31 22.8924 139.31 26.0417ZM110.238 17.8932C106.914 17.8932 105.352 19.8935 105.352 19.8935V9.34729H100.515V37.1875H104.596C104.999 37.1875 105.301 36.8375 105.301 36.4875V35.6382C105.301 35.6382 106.864 37.6874 110.188 37.6874C115.68 37.6874 119.962 33.4901 119.962 27.7918C120.013 22.093 115.731 17.8932 110.238 17.8932ZM109.432 33.1385C107.568 33.1385 106.108 32.1898 105.352 31.0893V24.3914C106.108 23.3918 107.72 22.3422 109.432 22.3422C112.657 22.3422 115.126 24.3415 115.126 27.7404C115.126 31.1393 112.657 33.1385 109.432 33.1385ZM96.3332 17.8932C97.7938 17.8932 98.5498 18.1439 98.5498 18.1439V22.5918C98.5498 22.5918 94.5193 21.2422 92.0007 24.0918V37.237H87.1633V18.3935H91.2447C91.6478 18.3935 91.9493 18.7436 91.9493 19.0936V19.8935C92.8573 18.8434 94.8222 17.8932 96.3332 17.8932ZM46.1026 35.4879C45.8509 34.8882 45.5988 34.2386 45.3471 33.6883C44.9434 32.789 44.5403 31.9387 44.1885 31.1393L44.1381 31.0893C40.6612 23.5915 36.9336 15.9948 33.0032 8.49794L32.8522 8.19734C32.4388 7.41963 32.036 6.63646 31.6438 5.84803C31.1394 4.94775 30.6361 3.99903 29.8298 3.09875C28.2177 1.09946 25.8999 -0.000549316 23.4316 -0.000549316C20.912 -0.000549316 18.6451 1.09947 16.9831 2.99839C16.2272 3.89767 15.6725 4.84739 15.1692 5.74767C14.776 6.53561 14.3731 7.31876 13.9607 8.09698L13.8092 8.39757C9.92964 15.8944 6.15123 23.4916 2.67481 30.989L2.62398 31.0883C2.27166 31.8892 1.868 32.7386 1.46484 33.6374C1.21318 34.1876 0.96152 34.7873 0.709862 35.4369C0.0545416 37.2859 -0.147298 39.0356 0.105367 40.8356C0.65952 44.5845 3.17812 47.7323 6.65504 49.1329C7.96518 49.6831 9.32565 49.9328 10.7359 49.9328C11.1391 49.9328 11.6424 49.8829 12.0461 49.8324C13.7091 49.6327 15.4218 49.0834 17.0848 48.1337C19.1504 46.9838 21.1154 45.335 23.332 42.9358C25.5486 45.335 27.5639 46.9838 29.5792 48.1337C31.2426 49.0834 32.9549 49.6327 34.6174 49.8324C35.0205 49.8834 35.5248 49.9328 35.928 49.9328C37.3388 49.9328 38.7491 49.6831 40.0084 49.1329C43.5357 47.7323 46.0039 44.5346 46.5586 40.8356C46.9587 39.0865 46.7574 37.3379 46.1026 35.4879ZM23.3808 38.0868C20.6599 34.6879 18.8962 31.4893 18.2923 28.7909C18.0406 27.641 17.9898 26.6414 18.1413 25.7416C18.2414 24.9417 18.5444 24.2416 18.9476 23.6419C19.9049 22.2932 21.517 21.4429 23.3813 21.4429C25.2461 21.4429 26.9086 22.2428 27.8155 23.6419C28.2187 24.2416 28.5207 24.9422 28.6224 25.7416C28.7729 26.6419 28.7225 27.6909 28.4709 28.7909C27.8644 31.4393 26.1007 34.6385 23.3808 38.0868ZM43.4823 40.4362C43.13 43.0351 41.3664 45.2851 38.8981 46.2847C37.6891 46.784 36.3785 46.9343 35.0694 46.784C33.8101 46.6337 32.5497 46.2338 31.2406 45.4848C29.4267 44.4842 27.6132 42.9358 25.4968 40.6359C28.8217 36.5879 30.837 32.8884 31.5929 29.5904C31.9458 28.0405 31.9966 26.6413 31.8446 25.3411C31.6438 24.0918 31.1898 22.9419 30.4846 21.9422C28.9218 19.6923 26.3016 18.3935 23.3803 18.3935C20.459 18.3935 17.8388 19.7432 16.277 21.9422C15.5718 22.9419 15.1178 24.0918 14.9165 25.3411C14.7152 26.6413 14.765 28.0904 15.1682 29.5904C15.9236 32.8884 17.9893 36.6373 21.2639 40.6858C19.1982 42.9852 17.3339 44.5351 15.52 45.5348C14.2098 46.2847 12.9511 46.6847 11.6918 46.834C10.3318 46.9843 9.02115 46.7841 7.86251 46.3347C5.39424 45.335 3.63061 43.0851 3.27829 40.4861C3.1273 39.2368 3.22746 37.9875 3.73178 36.5879C3.88227 36.0875 4.13494 35.5882 4.38659 34.9885C4.73942 34.1886 5.14157 33.3383 5.54523 32.4889L5.59608 32.3896C9.07199 24.9417 12.8001 17.3444 16.6796 9.94747L16.8306 9.64688C17.2343 8.8979 17.6375 8.09798 18.0401 7.348C18.4433 6.54808 18.8962 5.79809 19.4509 5.14798C20.5089 3.9496 21.9192 3.29898 23.4815 3.29898C25.0438 3.29898 26.4541 3.9496 27.512 5.14798C28.0667 5.79959 28.5197 6.54958 28.9228 7.348C29.3265 8.09798 29.7297 8.8979 30.1318 9.64688L30.2833 9.94747C34.1037 17.3752 37.7823 24.8739 41.317 32.4395V32.4894C41.7207 33.2903 42.073 34.1891 42.4762 34.99C42.7278 35.5887 42.98 36.0881 43.131 36.5884C43.5331 37.8866 43.6841 39.1369 43.4823 40.4362Z" fill="#CFCFDE"/>
</svg>
